<?xml version="1.0" encoding="utf-8"?>
<!-- Generator: Adobe Illustrator 25.0.0, SVG Export Plug-In . SVG Version: 6.00 Build 0)  -->
<svg version="1.1" id="Layer_1" xmlns="http://www.w3.org/2000/svg" xmlns:xlink="http://www.w3.org/1999/xlink" x="0px" y="0px"
	 viewBox="0 0 595.3 595.3" style="enable-background:new 0 0 595.3 595.3;" xml:space="preserve">
<g>
	<path d="M428.5,137.9h76.9c26.1,0,47.3,21.2,47.3,47.3v64.5h6v-64.5c0-29.4-23.9-53.3-53.3-53.3h-76.9V137.9z"/>
	<path d="M42.6,249.7v-64.5c0-26.1,21.2-47.3,47.3-47.3h77.6v-6H89.9c-29.4,0-53.3,23.9-53.3,53.3v64.5H42.6z"/>
	<path d="M552.7,349.6v60.5c0,26.1-21.2,47.3-47.3,47.3h-76.9v6h76.9c29.4,0,53.3-23.9,53.3-53.3v-60.5H552.7z"/>
	<path d="M167.5,457.4H89.9c-26.1,0-47.3-21.2-47.3-47.3v-60.5h-6v60.5c0,29.4,23.9,53.3,53.3,53.3h77.6V457.4z"/>
</g>
</svg>
