<?xml version="1.0" encoding="utf-8"?>
<!-- Generator: Adobe Illustrator 25.0.0, SVG Export Plug-In . SVG Version: 6.00 Build 0)  -->
<svg version="1.1" id="Layer_1" xmlns="http://www.w3.org/2000/svg" xmlns:xlink="http://www.w3.org/1999/xlink" x="0px" y="0px"
	 viewBox="0 0 850 605" style="enable-background:new 0 0 850 605;" xml:space="preserve">
<style type="text/css">
	.st0{fill:#3F3D56;}
	.st1{fill:#E6E6E6;}
	.st2{fill:#FFFFFF;}
	.st3{fill:#188BBD;}
	.st4{fill:#FFB8B8;}
	.st5{fill:#2F2E41;}
	.st6{opacity:0.33;fill:#188BBD;}
	.st7{opacity:0.33;fill:#FFFFFF;}
</style>
<path class="st0" d="M422,0H232.6c-30.9,0-56,25.1-56,56v17.1c-1.4-0.4-2.8,0.4-3.2,1.8c-0.1,0.2-0.1,0.5-0.1,0.7v13.2
	c0,1.4,1.1,2.6,2.6,2.6c0.2,0,0.5,0,0.7-0.1v19.9c-1.4-0.4-2.8,0.4-3.2,1.8c-0.1,0.2-0.1,0.5-0.1,0.7v32.9c0,1.4,1.1,2.6,2.6,2.6
	c0.2,0,0.5,0,0.7-0.1v12c-1.4-0.4-2.8,0.4-3.2,1.8c-0.1,0.2-0.1,0.5-0.1,0.7v32.9c0,1.4,1.1,2.6,2.6,2.6c0.2,0,0.5,0,0.7-0.1v347.5
	c0,30.9,25.1,56,56,56H422c30.9,0,56-25.1,56-56V56C478,25.1,452.9,0,422,0z M466.1,546.9c0,24.4-19.8,44.2-44.2,44.2H232.6
	c-24.4,0-44.2-19.8-44.2-44.2V56c0-24.4,19.8-44.2,44.2-44.2H422c24.4,0,44.2,19.8,44.2,44.2V546.9z"/>
<path class="st1" d="M422,597.6H232.6c-28,0-50.7-22.7-50.8-50.8V56c0-28,22.7-50.7,50.8-50.8H422c28,0,50.7,22.7,50.8,50.8v490.8
	C472.7,574.9,450,597.6,422,597.6z"/>
<path class="st2" d="M426.6,589.7H227.9c-18.9,0-34.2-15.3-34.2-34.2V47.4c0-18.9,15.3-34.2,34.2-34.2h25.9c3.1,0,5.7,2.5,5.7,5.7
	c0,9.2,7.5,16.7,16.7,16.7h99.5c9.2,0,16.7-7.5,16.7-16.7c0-3.1,2.5-5.7,5.7-5.7h28.6c18.9,0,34.2,15.3,34.2,34.2v508.1
	C460.9,574.4,445.5,589.7,426.6,589.7z"/>
<path class="st2" d="M335.8,24.7h-23.7c-1.5,0-2.6-1.2-2.6-2.6s1.2-2.6,2.6-2.6h23.7c1.5,0,2.6,1.2,2.6,2.6S337.3,24.7,335.8,24.7z"
	/>
<circle class="st2" cx="352.3" cy="22.7" r="1.3"/>
<rect x="187" y="116" class="st1" width="280.3" height="3"/>
<rect x="187" y="176" class="st1" width="280.3" height="3"/>
<rect x="187" y="300" class="st1" width="280.3" height="3"/>
<rect x="187" y="424" class="st1" width="280.3" height="3"/>
<rect x="187" y="521" class="st1" width="280.3" height="3"/>
<rect x="387.5" y="117.5" class="st1" width="3" height="184"/>
<rect x="247.2" y="301.4" class="st1" width="3" height="221.1"/>
<rect x="248.7" y="362.1" class="st1" width="212.1" height="3"/>
<rect x="387.9" y="522.5" class="st1" width="3" height="67.2"/>
<rect x="193.2" y="239.2" class="st1" width="195.4" height="3"/>
<rect x="253.2" y="7.4" transform="matrix(0.9225 -0.386 0.386 0.9225 -5.2238 103.3331)" class="st1" width="3" height="114.5"/>
<rect x="367.1" y="35.5" class="st1" width="3" height="82"/>
<path class="st3" d="M447.5,163c0,26.9-41.6,89.5-53.7,107.2c-1.2,1.8-3.7,2.3-5.5,1c-0.4-0.3-0.8-0.6-1-1
	c-12.1-17.7-53.7-80.4-53.7-107.2c0-31.5,25.5-57,57-57S447.5,131.5,447.5,163z"/>
<circle class="st2" cx="390.5" cy="159" r="29"/>
<rect x="212.3" y="411.3" transform="matrix(0.4476 -0.8942 0.8942 0.4476 -184.027 527.6049)" class="st1" width="245.4" height="3"/>
<path class="st4" d="M546.8,350.6c4.9,2.6,11,0.8,13.6-4.1c0.3-0.5,0.5-1.1,0.7-1.6l35.7-0.6L586.3,329l-32.3,2.9
	c-5.4-1.4-10.9,1.9-12.3,7.3C540.5,343.7,542.6,348.4,546.8,350.6L546.8,350.6z"/>
<path class="st3" d="M568.2,350.2c-2.3,0-4.1-1.8-4.1-4.1c0-0.1,0-0.1,0-0.2l0.7-16.4c0.1-2,1.6-3.7,3.6-3.9l41.4-4.7l-1.4,27.3
	l-40.1,2C568.3,350.2,568.3,350.2,568.2,350.2z"/>
<polygon class="st4" points="618.6,574.8 607,578.6 586.7,535.4 603.9,529.8 "/>
<path class="st5" d="M625.3,585.1l-37.6,12.3l-0.2-0.5c-2.6-8.1,1.8-16.8,9.8-19.4c0,0,0,0,0,0l0,0l23-7.5L625.3,585.1z"/>
<polygon class="st4" points="652.9,592.8 640.7,592.8 634.9,545.5 652.9,545.5 "/>
<path class="st5" d="M656.1,604.7l-39.5,0v-0.5c0-8.5,6.9-15.4,15.4-15.4c0,0,0,0,0,0h0l24.1,0L656.1,604.7z"/>
<path class="st5" d="M634.3,581.3c-2.1,0-3.8-1.6-4.1-3.6l-15.8-132.1l-23.1,37.1l27.1,69.4c0.8,2-0.1,4.2-2,5.2l-23,11.3
	c-2,1-4.5,0.2-5.5-1.9c-0.1-0.2-0.2-0.3-0.2-0.5L562.2,489c-1.9-5.8-2.2-12-0.7-18l16.5-67.7l0.2-0.1l37.2-20.4l0.2,0.1l43.8,16
	l-4.6,86.8l3.3,90.1c0.1,2.2-1.6,4.1-3.8,4.2l-19.7,1.2C634.5,581.3,634.4,581.3,634.3,581.3z"/>
<path class="st3" d="M610.2,429c-6.5,0-12.1-1.9-15.5-6.6l-0.1-0.2l2.2-23.4l-19.9,11c-1.1,0.6-2.5,0.2-3.1-0.9
	c-0.3-0.6-0.4-1.3-0.1-1.9l24.8-65.8l16.3-53.6c1.7-8.8,8.6-15.6,17.4-17.2l0,0c14.6-2.7,23.2,2.2,33.3,13.1
	c4.9,5.4,7.1,12.7,5.8,19.9l-9.5,54.2l2.8,48.6c0.4,1.7-0.3,3.5-1.8,4.5C655,415.7,631.3,429,610.2,429z"/>
<circle class="st4" cx="643.3" cy="237.9" r="24.6"/>
<path class="st4" d="M649.7,412.9c5-2.3,7.3-8.3,5-13.3c-0.2-0.5-0.5-1.1-0.9-1.5l21.1-28.9l-18.5-0.9l-17.2,27.5
	c-4.4,3.5-5.1,9.8-1.6,14.2C640.5,413.7,645.5,414.9,649.7,412.9L649.7,412.9z"/>
<path class="st3" d="M661.1,396.6c-1,0.1-2.1-0.1-2.9-0.7l-13.9-9.7c-1.7-1.2-2.3-3.5-1.2-5.4l24.8-44.2l-25-30.1
	c-5.2-6.3-4.4-15.6,1.9-20.8s15.6-4.4,20.8,1.9c0.6,0.7,1.1,1.4,1.5,2.2l27.6,48.7c0.4,0.7,0.4,1.6,0,2.3l-30.6,53.8
	c-0.6,1-1.5,1.7-2.7,2C661.3,396.6,661.2,396.6,661.1,396.6z"/>
<path class="st5" d="M633.5,234.7c-2.4-1.8-5.8-1.5-8.7-2.5c-5.4-1.8-8.3-7.6-6.6-13c0.6-1.7,1.6-3.2,2.9-4.4
	c3.1-2.8,7.5-3.4,11.7-3.9c5.7-0.7,11.4-1.4,17.1-0.8s11.4,2.5,15.6,6.4c4.6,4.3,6.9,10.8,6.9,17.1c-0.2,6.3-1.9,12.5-5.1,18
	c-1,2.1-2.5,3.9-4.3,5.3c-1.9,1.3-4.6,1.6-6.5,0.2c-1.6-1.2-2.2-3.2-2.9-5.1s-1.9-3.8-3.9-4.1c-2.5-0.4-4.5,2.2-6.9,3
	c-3.4,1.2-7.1-1.4-8.5-4.7s-1-7-0.6-10.6"/>
<circle class="st3" cx="390.5" cy="301" r="13"/>
<path class="st6" d="M97.7,357.3c8,12.2,7.7,53,7.5,64.7c0,1.2-1,2.1-2.2,2.1c-0.3,0-0.5-0.1-0.8-0.2c-10.8-4.4-48.3-20.5-56.3-32.7
	c-9.4-14.3-5.4-33.5,8.9-42.8S88.3,343,97.7,357.3C97.7,357.3,97.7,357.3,97.7,357.3z"/>
<circle class="st7" cx="70.6" cy="372.5" r="15.7"/>
<circle class="st6" cx="112.8" cy="436.9" r="7.1"/>
</svg>
